<mxfile host="app.diagrams.net" modified="2023-05-06T10:04:52.548Z" agent="Mozilla/5.0 (Windows NT 10.0; Win64; x64) AppleWebKit/537.36 (KHTML, like Gecko) Chrome/111.0.0.0 Safari/537.36" etag="LdbslO2tWbICMhXpMg_D" version="21.2.1" type="github" pages="6">
  <diagram id="C5RBs43oDa-KdzZeNtuy" name="下单">
    <mxGraphModel dx="1434" dy="708" grid="1" gridSize="10" guides="1" tooltips="1" connect="1" arrows="1" fold="1" page="1" pageScale="1" pageWidth="827" pageHeight="1169" math="0" shadow="0">
      <root>
        <mxCell id="WIyWlLk6GJQsqaUBKTNV-0" />
        <mxCell id="WIyWlLk6GJQsqaUBKTNV-1" parent="WIyWlLk6GJQsqaUBKTNV-0" />
        <mxCell id="BAccwYvErxZb2YkLrRGl-1" value="&lt;b&gt;&lt;font style=&quot;font-size: 18px;&quot;&gt;下单&lt;/font&gt;&lt;/b&gt;" style="text;html=1;strokeColor=none;fillColor=none;align=center;verticalAlign=middle;whiteSpace=wrap;rounded=0;" parent="WIyWlLk6GJQsqaUBKTNV-1" vertex="1">
          <mxGeometry x="60" y="50" width="60" height="30" as="geometry" />
        </mxCell>
        <mxCell id="BAccwYvErxZb2YkLrRGl-6" style="edgeStyle=orthogonalEdgeStyle;rounded=0;orthogonalLoop=1;jettySize=auto;html=1;" parent="WIyWlLk6GJQsqaUBKTNV-1" source="BAccwYvErxZb2YkLrRGl-2" target="BAccwYvErxZb2YkLrRGl-5" edge="1">
          <mxGeometry relative="1" as="geometry" />
        </mxCell>
        <mxCell id="BAccwYvErxZb2YkLrRGl-2" value="开始" style="rounded=1;whiteSpace=wrap;html=1;sketch=1;curveFitting=1;jiggle=2;fillColor=#f8cecc;strokeColor=#b85450;" parent="WIyWlLk6GJQsqaUBKTNV-1" vertex="1">
          <mxGeometry x="150" y="100" width="100" height="30" as="geometry" />
        </mxCell>
        <mxCell id="BAccwYvErxZb2YkLrRGl-8" value="" style="edgeStyle=orthogonalEdgeStyle;rounded=0;orthogonalLoop=1;jettySize=auto;html=1;" parent="WIyWlLk6GJQsqaUBKTNV-1" source="BAccwYvErxZb2YkLrRGl-5" target="BAccwYvErxZb2YkLrRGl-7" edge="1">
          <mxGeometry relative="1" as="geometry" />
        </mxCell>
        <mxCell id="BAccwYvErxZb2YkLrRGl-5" value="缓存获取token&lt;br&gt;(以前是nacos配置取）" style="rounded=0;whiteSpace=wrap;html=1;sketch=1;curveFitting=1;jiggle=2;fillColor=#f8cecc;strokeColor=#b85450;" parent="WIyWlLk6GJQsqaUBKTNV-1" vertex="1">
          <mxGeometry x="115" y="170" width="170" height="40" as="geometry" />
        </mxCell>
        <mxCell id="BAccwYvErxZb2YkLrRGl-10" value="" style="edgeStyle=orthogonalEdgeStyle;rounded=0;orthogonalLoop=1;jettySize=auto;html=1;" parent="WIyWlLk6GJQsqaUBKTNV-1" source="BAccwYvErxZb2YkLrRGl-7" target="BAccwYvErxZb2YkLrRGl-9" edge="1">
          <mxGeometry relative="1" as="geometry" />
        </mxCell>
        <mxCell id="BAccwYvErxZb2YkLrRGl-45" value="Y" style="edgeLabel;html=1;align=center;verticalAlign=middle;resizable=0;points=[];" parent="BAccwYvErxZb2YkLrRGl-10" vertex="1" connectable="0">
          <mxGeometry x="0.287" relative="1" as="geometry">
            <mxPoint as="offset" />
          </mxGeometry>
        </mxCell>
        <mxCell id="BAccwYvErxZb2YkLrRGl-27" style="edgeStyle=orthogonalEdgeStyle;rounded=0;orthogonalLoop=1;jettySize=auto;html=1;entryX=0.5;entryY=0;entryDx=0;entryDy=0;" parent="WIyWlLk6GJQsqaUBKTNV-1" source="BAccwYvErxZb2YkLrRGl-7" target="BAccwYvErxZb2YkLrRGl-15" edge="1">
          <mxGeometry relative="1" as="geometry" />
        </mxCell>
        <mxCell id="BAccwYvErxZb2YkLrRGl-44" value="N" style="edgeLabel;html=1;align=center;verticalAlign=middle;resizable=0;points=[];" parent="BAccwYvErxZb2YkLrRGl-27" vertex="1" connectable="0">
          <mxGeometry x="-0.5353" y="3" relative="1" as="geometry">
            <mxPoint as="offset" />
          </mxGeometry>
        </mxCell>
        <mxCell id="BAccwYvErxZb2YkLrRGl-7" value="缓存命中" style="rhombus;whiteSpace=wrap;html=1;rounded=0;fillColor=#f8cecc;strokeColor=#b85450;sketch=1;curveFitting=1;jiggle=2;" parent="WIyWlLk6GJQsqaUBKTNV-1" vertex="1">
          <mxGeometry x="100" y="250" width="200" height="70" as="geometry" />
        </mxCell>
        <mxCell id="BAccwYvErxZb2YkLrRGl-12" value="" style="edgeStyle=orthogonalEdgeStyle;rounded=0;orthogonalLoop=1;jettySize=auto;html=1;" parent="WIyWlLk6GJQsqaUBKTNV-1" source="BAccwYvErxZb2YkLrRGl-9" target="BAccwYvErxZb2YkLrRGl-11" edge="1">
          <mxGeometry relative="1" as="geometry" />
        </mxCell>
        <mxCell id="BAccwYvErxZb2YkLrRGl-9" value="下单" style="whiteSpace=wrap;html=1;rounded=0;fillColor=#f8cecc;strokeColor=#b85450;shadow=0;sketch=1;curveFitting=1;jiggle=2;" parent="WIyWlLk6GJQsqaUBKTNV-1" vertex="1">
          <mxGeometry x="140" y="492.5" width="120" height="25" as="geometry" />
        </mxCell>
        <mxCell id="BAccwYvErxZb2YkLrRGl-14" value="" style="edgeStyle=orthogonalEdgeStyle;rounded=0;orthogonalLoop=1;jettySize=auto;html=1;" parent="WIyWlLk6GJQsqaUBKTNV-1" source="BAccwYvErxZb2YkLrRGl-11" target="BAccwYvErxZb2YkLrRGl-13" edge="1">
          <mxGeometry relative="1" as="geometry" />
        </mxCell>
        <mxCell id="BAccwYvErxZb2YkLrRGl-49" value="N" style="edgeLabel;html=1;align=center;verticalAlign=middle;resizable=0;points=[];" parent="BAccwYvErxZb2YkLrRGl-14" vertex="1" connectable="0">
          <mxGeometry x="-0.269" relative="1" as="geometry">
            <mxPoint as="offset" />
          </mxGeometry>
        </mxCell>
        <mxCell id="BAccwYvErxZb2YkLrRGl-50" value="失败" style="edgeLabel;html=1;align=center;verticalAlign=middle;resizable=0;points=[];" parent="BAccwYvErxZb2YkLrRGl-14" vertex="1" connectable="0">
          <mxGeometry x="-0.2718" y="-4" relative="1" as="geometry">
            <mxPoint as="offset" />
          </mxGeometry>
        </mxCell>
        <mxCell id="BAccwYvErxZb2YkLrRGl-39" style="edgeStyle=orthogonalEdgeStyle;rounded=0;orthogonalLoop=1;jettySize=auto;html=1;entryX=0.5;entryY=0;entryDx=0;entryDy=0;" parent="WIyWlLk6GJQsqaUBKTNV-1" source="BAccwYvErxZb2YkLrRGl-11" target="BAccwYvErxZb2YkLrRGl-34" edge="1">
          <mxGeometry relative="1" as="geometry" />
        </mxCell>
        <mxCell id="BAccwYvErxZb2YkLrRGl-51" value="成功" style="edgeLabel;html=1;align=center;verticalAlign=middle;resizable=0;points=[];" parent="BAccwYvErxZb2YkLrRGl-39" vertex="1" connectable="0">
          <mxGeometry x="-0.225" y="-4" relative="1" as="geometry">
            <mxPoint as="offset" />
          </mxGeometry>
        </mxCell>
        <mxCell id="BAccwYvErxZb2YkLrRGl-11" value="下单成功？失败&lt;br&gt;（因token失效失败的）" style="rhombus;whiteSpace=wrap;html=1;rounded=0;sketch=1;curveFitting=1;jiggle=2;fillColor=#f8cecc;strokeColor=#b85450;" parent="WIyWlLk6GJQsqaUBKTNV-1" vertex="1">
          <mxGeometry x="95" y="585" width="210" height="60" as="geometry" />
        </mxCell>
        <mxCell id="BAccwYvErxZb2YkLrRGl-38" style="edgeStyle=orthogonalEdgeStyle;rounded=0;orthogonalLoop=1;jettySize=auto;html=1;entryX=0;entryY=0.5;entryDx=0;entryDy=0;" parent="WIyWlLk6GJQsqaUBKTNV-1" source="BAccwYvErxZb2YkLrRGl-13" target="BAccwYvErxZb2YkLrRGl-34" edge="1">
          <mxGeometry relative="1" as="geometry">
            <mxPoint x="320" y="705" as="targetPoint" />
          </mxGeometry>
        </mxCell>
        <mxCell id="BAccwYvErxZb2YkLrRGl-13" value="清缓存" style="whiteSpace=wrap;html=1;rounded=0;sketch=1;curveFitting=1;jiggle=2;fillColor=#f8cecc;strokeColor=#b85450;" parent="WIyWlLk6GJQsqaUBKTNV-1" vertex="1">
          <mxGeometry x="140" y="690" width="120" height="30" as="geometry" />
        </mxCell>
        <mxCell id="BAccwYvErxZb2YkLrRGl-18" value="" style="edgeStyle=orthogonalEdgeStyle;rounded=0;orthogonalLoop=1;jettySize=auto;html=1;" parent="WIyWlLk6GJQsqaUBKTNV-1" source="BAccwYvErxZb2YkLrRGl-15" target="BAccwYvErxZb2YkLrRGl-17" edge="1">
          <mxGeometry relative="1" as="geometry" />
        </mxCell>
        <mxCell id="BAccwYvErxZb2YkLrRGl-15" value="从oms获取" style="whiteSpace=wrap;html=1;rounded=0;sketch=1;curveFitting=1;jiggle=2;fillColor=#dae8fc;strokeColor=#6c8ebf;" parent="WIyWlLk6GJQsqaUBKTNV-1" vertex="1">
          <mxGeometry x="430" y="175" width="120" height="35" as="geometry" />
        </mxCell>
        <mxCell id="BAccwYvErxZb2YkLrRGl-22" value="" style="edgeStyle=orthogonalEdgeStyle;rounded=0;orthogonalLoop=1;jettySize=auto;html=1;" parent="WIyWlLk6GJQsqaUBKTNV-1" source="BAccwYvErxZb2YkLrRGl-17" target="BAccwYvErxZb2YkLrRGl-21" edge="1">
          <mxGeometry relative="1" as="geometry" />
        </mxCell>
        <mxCell id="BAccwYvErxZb2YkLrRGl-46" value="N" style="edgeLabel;html=1;align=center;verticalAlign=middle;resizable=0;points=[];" parent="BAccwYvErxZb2YkLrRGl-22" vertex="1" connectable="0">
          <mxGeometry x="-0.1158" y="-1" relative="1" as="geometry">
            <mxPoint as="offset" />
          </mxGeometry>
        </mxCell>
        <mxCell id="BAccwYvErxZb2YkLrRGl-26" value="" style="edgeStyle=orthogonalEdgeStyle;rounded=0;orthogonalLoop=1;jettySize=auto;html=1;exitX=0.5;exitY=1;exitDx=0;exitDy=0;" parent="WIyWlLk6GJQsqaUBKTNV-1" source="BAccwYvErxZb2YkLrRGl-17" target="BAccwYvErxZb2YkLrRGl-25" edge="1">
          <mxGeometry relative="1" as="geometry" />
        </mxCell>
        <mxCell id="BAccwYvErxZb2YkLrRGl-48" value="Y" style="edgeLabel;html=1;align=center;verticalAlign=middle;resizable=0;points=[];" parent="BAccwYvErxZb2YkLrRGl-26" vertex="1" connectable="0">
          <mxGeometry x="-0.122" y="1" relative="1" as="geometry">
            <mxPoint as="offset" />
          </mxGeometry>
        </mxCell>
        <mxCell id="BAccwYvErxZb2YkLrRGl-17" value="获取成功?" style="rhombus;whiteSpace=wrap;html=1;rounded=0;sketch=1;curveFitting=1;jiggle=2;fillColor=#dae8fc;strokeColor=#6c8ebf;" parent="WIyWlLk6GJQsqaUBKTNV-1" vertex="1">
          <mxGeometry x="407.5" y="250" width="165" height="40" as="geometry" />
        </mxCell>
        <mxCell id="BAccwYvErxZb2YkLrRGl-32" style="edgeStyle=orthogonalEdgeStyle;rounded=0;orthogonalLoop=1;jettySize=auto;html=1;entryX=0.567;entryY=0.033;entryDx=0;entryDy=0;entryPerimeter=0;" parent="WIyWlLk6GJQsqaUBKTNV-1" source="BAccwYvErxZb2YkLrRGl-21" target="BAccwYvErxZb2YkLrRGl-28" edge="1">
          <mxGeometry relative="1" as="geometry" />
        </mxCell>
        <mxCell id="BAccwYvErxZb2YkLrRGl-21" value="从数据获取" style="whiteSpace=wrap;html=1;rounded=0;fillColor=#dae8fc;strokeColor=#6c8ebf;sketch=1;curveFitting=1;jiggle=2;" parent="WIyWlLk6GJQsqaUBKTNV-1" vertex="1">
          <mxGeometry x="330" y="380" width="120" height="40" as="geometry" />
        </mxCell>
        <mxCell id="BAccwYvErxZb2YkLrRGl-33" style="edgeStyle=orthogonalEdgeStyle;rounded=0;orthogonalLoop=1;jettySize=auto;html=1;entryX=0.558;entryY=-0.067;entryDx=0;entryDy=0;entryPerimeter=0;" parent="WIyWlLk6GJQsqaUBKTNV-1" source="BAccwYvErxZb2YkLrRGl-25" target="BAccwYvErxZb2YkLrRGl-28" edge="1">
          <mxGeometry relative="1" as="geometry" />
        </mxCell>
        <mxCell id="BAccwYvErxZb2YkLrRGl-25" value="存入缓存，失效时间N天&lt;br&gt;（动态获取，代码配置，&lt;br&gt;天猫、拼多多7天，快手1天）" style="whiteSpace=wrap;html=1;rounded=0;shadow=0;sketch=1;curveFitting=1;jiggle=2;fillColor=#dae8fc;strokeColor=#6c8ebf;" parent="WIyWlLk6GJQsqaUBKTNV-1" vertex="1">
          <mxGeometry x="500" y="380" width="210" height="40" as="geometry" />
        </mxCell>
        <mxCell id="BAccwYvErxZb2YkLrRGl-31" style="edgeStyle=orthogonalEdgeStyle;rounded=0;orthogonalLoop=1;jettySize=auto;html=1;entryX=1;entryY=0.5;entryDx=0;entryDy=0;" parent="WIyWlLk6GJQsqaUBKTNV-1" source="BAccwYvErxZb2YkLrRGl-28" target="BAccwYvErxZb2YkLrRGl-9" edge="1">
          <mxGeometry relative="1" as="geometry" />
        </mxCell>
        <mxCell id="BAccwYvErxZb2YkLrRGl-28" value="返回token" style="whiteSpace=wrap;html=1;rounded=0;fillColor=#dae8fc;strokeColor=#6c8ebf;sketch=1;curveFitting=1;jiggle=2;" parent="WIyWlLk6GJQsqaUBKTNV-1" vertex="1">
          <mxGeometry x="414" y="490" width="120" height="30" as="geometry" />
        </mxCell>
        <mxCell id="BAccwYvErxZb2YkLrRGl-43" style="edgeStyle=orthogonalEdgeStyle;rounded=0;orthogonalLoop=1;jettySize=auto;html=1;entryX=0.5;entryY=0;entryDx=0;entryDy=0;" parent="WIyWlLk6GJQsqaUBKTNV-1" source="BAccwYvErxZb2YkLrRGl-34" target="BAccwYvErxZb2YkLrRGl-41" edge="1">
          <mxGeometry relative="1" as="geometry" />
        </mxCell>
        <mxCell id="BAccwYvErxZb2YkLrRGl-34" value="保存下单结果" style="whiteSpace=wrap;html=1;rounded=0;sketch=1;curveFitting=1;jiggle=2;fillColor=#f8cecc;strokeColor=#b85450;" parent="WIyWlLk6GJQsqaUBKTNV-1" vertex="1">
          <mxGeometry x="330" y="690" width="120" height="30" as="geometry" />
        </mxCell>
        <mxCell id="BAccwYvErxZb2YkLrRGl-36" value="如果因为token失效失败的，&lt;br&gt;下次重试就会获取到新的token进行下单" style="shape=note;whiteSpace=wrap;html=1;backgroundOutline=1;darkOpacity=0.05;fillColor=#fff2cc;strokeColor=#d6b656;" parent="WIyWlLk6GJQsqaUBKTNV-1" vertex="1">
          <mxGeometry x="10" y="700" width="100" height="130" as="geometry" />
        </mxCell>
        <mxCell id="BAccwYvErxZb2YkLrRGl-41" value="结束" style="rounded=1;whiteSpace=wrap;html=1;fillColor=#f8cecc;strokeColor=#b85450;sketch=1;curveFitting=1;jiggle=2;glass=0;" parent="WIyWlLk6GJQsqaUBKTNV-1" vertex="1">
          <mxGeometry x="335" y="770" width="110" height="30" as="geometry" />
        </mxCell>
      </root>
    </mxGraphModel>
  </diagram>
  <diagram id="6frJyrP9q6fcRzuWD-gJ" name="同步数据">
    <mxGraphModel dx="1434" dy="708" grid="1" gridSize="10" guides="1" tooltips="1" connect="1" arrows="1" fold="1" page="1" pageScale="1" pageWidth="2500" pageHeight="1600" math="0" shadow="0">
      <root>
        <mxCell id="0" />
        <mxCell id="1" parent="0" />
        <mxCell id="4wO2klGkpgLg56SWhjda-1" value="&lt;b&gt;&lt;font style=&quot;font-size: 19px;&quot;&gt;获取电子面单、模板&lt;/font&gt;&lt;/b&gt;" style="text;html=1;strokeColor=none;fillColor=none;align=center;verticalAlign=middle;whiteSpace=wrap;rounded=0;" vertex="1" parent="1">
          <mxGeometry x="60" y="30" width="200" height="30" as="geometry" />
        </mxCell>
        <mxCell id="4wO2klGkpgLg56SWhjda-4" style="edgeStyle=orthogonalEdgeStyle;rounded=0;orthogonalLoop=1;jettySize=auto;html=1;" edge="1" parent="1" source="4wO2klGkpgLg56SWhjda-2" target="4wO2klGkpgLg56SWhjda-3">
          <mxGeometry relative="1" as="geometry" />
        </mxCell>
        <mxCell id="4wO2klGkpgLg56SWhjda-2" value="开始" style="rounded=1;whiteSpace=wrap;html=1;fillColor=#f8cecc;strokeColor=#b85450;sketch=1;curveFitting=1;jiggle=2;" vertex="1" parent="1">
          <mxGeometry x="330" y="110" width="110" height="40" as="geometry" />
        </mxCell>
        <mxCell id="4wO2klGkpgLg56SWhjda-6" value="" style="edgeStyle=orthogonalEdgeStyle;rounded=0;orthogonalLoop=1;jettySize=auto;html=1;" edge="1" parent="1" source="4wO2klGkpgLg56SWhjda-3" target="4wO2klGkpgLg56SWhjda-5">
          <mxGeometry relative="1" as="geometry" />
        </mxCell>
        <mxCell id="4wO2klGkpgLg56SWhjda-3" value="某平台获取电子面单" style="rounded=0;whiteSpace=wrap;html=1;fillColor=#f8cecc;strokeColor=#b85450;sketch=1;curveFitting=1;jiggle=2;" vertex="1" parent="1">
          <mxGeometry x="325" y="190" width="120" height="30" as="geometry" />
        </mxCell>
        <mxCell id="4wO2klGkpgLg56SWhjda-8" value="" style="edgeStyle=orthogonalEdgeStyle;rounded=0;orthogonalLoop=1;jettySize=auto;html=1;" edge="1" parent="1" source="4wO2klGkpgLg56SWhjda-5" target="4wO2klGkpgLg56SWhjda-7">
          <mxGeometry relative="1" as="geometry" />
        </mxCell>
        <mxCell id="4wO2klGkpgLg56SWhjda-5" value="查询carrierInterface表，获取需要刷新的店铺" style="rounded=0;whiteSpace=wrap;html=1;fillColor=#f8cecc;strokeColor=#b85450;sketch=1;curveFitting=1;jiggle=2;" vertex="1" parent="1">
          <mxGeometry x="325" y="250" width="120" height="60" as="geometry" />
        </mxCell>
        <mxCell id="4wO2klGkpgLg56SWhjda-10" value="" style="edgeStyle=orthogonalEdgeStyle;rounded=0;orthogonalLoop=1;jettySize=auto;html=1;" edge="1" parent="1" source="4wO2klGkpgLg56SWhjda-7" target="4wO2klGkpgLg56SWhjda-9">
          <mxGeometry relative="1" as="geometry" />
        </mxCell>
        <mxCell id="4wO2klGkpgLg56SWhjda-7" value="查询电子面单" style="rounded=0;whiteSpace=wrap;html=1;fillColor=#f8cecc;strokeColor=#b85450;sketch=1;curveFitting=1;jiggle=2;" vertex="1" parent="1">
          <mxGeometry x="325" y="350" width="120" height="30" as="geometry" />
        </mxCell>
        <mxCell id="4wO2klGkpgLg56SWhjda-12" value="" style="edgeStyle=orthogonalEdgeStyle;rounded=0;orthogonalLoop=1;jettySize=auto;html=1;" edge="1" parent="1" source="4wO2klGkpgLg56SWhjda-9" target="4wO2klGkpgLg56SWhjda-11">
          <mxGeometry relative="1" as="geometry" />
        </mxCell>
        <mxCell id="4wO2klGkpgLg56SWhjda-18" value="" style="edgeStyle=orthogonalEdgeStyle;rounded=0;orthogonalLoop=1;jettySize=auto;html=1;" edge="1" parent="1" source="4wO2klGkpgLg56SWhjda-9" target="4wO2klGkpgLg56SWhjda-17">
          <mxGeometry relative="1" as="geometry" />
        </mxCell>
        <mxCell id="4wO2klGkpgLg56SWhjda-9" value="查询成功?失败&lt;br&gt;（因token失效失败）" style="rhombus;whiteSpace=wrap;html=1;rounded=0;fillColor=#f8cecc;strokeColor=#b85450;sketch=1;curveFitting=1;jiggle=2;" vertex="1" parent="1">
          <mxGeometry x="287.5" y="410" width="195" height="60" as="geometry" />
        </mxCell>
        <mxCell id="4wO2klGkpgLg56SWhjda-14" value="" style="edgeStyle=orthogonalEdgeStyle;rounded=0;orthogonalLoop=1;jettySize=auto;html=1;" edge="1" parent="1" source="4wO2klGkpgLg56SWhjda-11" target="4wO2klGkpgLg56SWhjda-13">
          <mxGeometry relative="1" as="geometry" />
        </mxCell>
        <mxCell id="4wO2klGkpgLg56SWhjda-11" value="抛异常" style="whiteSpace=wrap;html=1;rounded=0;fillColor=#f8cecc;strokeColor=#b85450;sketch=1;curveFitting=1;jiggle=2;" vertex="1" parent="1">
          <mxGeometry x="325" y="510" width="120" height="30" as="geometry" />
        </mxCell>
        <mxCell id="4wO2klGkpgLg56SWhjda-16" value="" style="edgeStyle=orthogonalEdgeStyle;rounded=0;orthogonalLoop=1;jettySize=auto;html=1;" edge="1" parent="1" source="4wO2klGkpgLg56SWhjda-13" target="4wO2klGkpgLg56SWhjda-15">
          <mxGeometry relative="1" as="geometry" />
        </mxCell>
        <mxCell id="4wO2klGkpgLg56SWhjda-13" value="aop切面捕获异常，重新获取token，并更新数据库，缓存" style="whiteSpace=wrap;html=1;rounded=0;fillColor=#dae8fc;strokeColor=#6c8ebf;sketch=1;curveFitting=1;jiggle=2;" vertex="1" parent="1">
          <mxGeometry x="600" y="495" width="120" height="60" as="geometry" />
        </mxCell>
        <mxCell id="4wO2klGkpgLg56SWhjda-31" style="edgeStyle=orthogonalEdgeStyle;rounded=0;orthogonalLoop=1;jettySize=auto;html=1;entryX=1;entryY=0.5;entryDx=0;entryDy=0;" edge="1" parent="1" source="4wO2klGkpgLg56SWhjda-15" target="4wO2klGkpgLg56SWhjda-7">
          <mxGeometry relative="1" as="geometry">
            <Array as="points">
              <mxPoint x="830" y="615" />
              <mxPoint x="830" y="365" />
            </Array>
          </mxGeometry>
        </mxCell>
        <mxCell id="4wO2klGkpgLg56SWhjda-15" value="再次调用查询电子面单方法" style="whiteSpace=wrap;html=1;rounded=0;fillColor=#dae8fc;strokeColor=#6c8ebf;sketch=1;curveFitting=1;jiggle=2;" vertex="1" parent="1">
          <mxGeometry x="600" y="590" width="120" height="50" as="geometry" />
        </mxCell>
        <mxCell id="4wO2klGkpgLg56SWhjda-22" value="" style="edgeStyle=orthogonalEdgeStyle;rounded=0;orthogonalLoop=1;jettySize=auto;html=1;" edge="1" parent="1" source="4wO2klGkpgLg56SWhjda-17" target="4wO2klGkpgLg56SWhjda-21">
          <mxGeometry relative="1" as="geometry" />
        </mxCell>
        <mxCell id="4wO2klGkpgLg56SWhjda-17" value="解析查询结果" style="whiteSpace=wrap;html=1;rounded=0;fillColor=#f8cecc;strokeColor=#b85450;sketch=1;curveFitting=1;jiggle=2;" vertex="1" parent="1">
          <mxGeometry x="125" y="590" width="120" height="40" as="geometry" />
        </mxCell>
        <mxCell id="4wO2klGkpgLg56SWhjda-25" style="edgeStyle=orthogonalEdgeStyle;rounded=0;orthogonalLoop=1;jettySize=auto;html=1;" edge="1" parent="1" source="4wO2klGkpgLg56SWhjda-21" target="4wO2klGkpgLg56SWhjda-24">
          <mxGeometry relative="1" as="geometry" />
        </mxCell>
        <mxCell id="4wO2klGkpgLg56SWhjda-21" value="保存电子面单数据" style="whiteSpace=wrap;html=1;rounded=0;fillColor=#f8cecc;strokeColor=#b85450;sketch=1;curveFitting=1;jiggle=2;" vertex="1" parent="1">
          <mxGeometry x="125" y="680" width="120" height="40" as="geometry" />
        </mxCell>
        <mxCell id="4wO2klGkpgLg56SWhjda-24" value="结束" style="rounded=1;whiteSpace=wrap;html=1;fillColor=#f8cecc;strokeColor=#b85450;sketch=1;curveFitting=1;jiggle=2;" vertex="1" parent="1">
          <mxGeometry x="130" y="760" width="110" height="30" as="geometry" />
        </mxCell>
        <mxCell id="4wO2klGkpgLg56SWhjda-32" value="每个平台下的每个店铺单独处理，如果哪一个店铺查询出错，不会影响其他店铺、其他平台" style="shape=note;whiteSpace=wrap;html=1;backgroundOutline=1;darkOpacity=0.05;fillColor=#fff2cc;strokeColor=#d6b656;" vertex="1" parent="1">
          <mxGeometry x="510" y="170" width="120" height="170" as="geometry" />
        </mxCell>
      </root>
    </mxGraphModel>
  </diagram>
  <diagram id="gYPwUN702rHeVaj-IyC4" name="并发场景1">
    <mxGraphModel dx="1434" dy="708" grid="1" gridSize="10" guides="1" tooltips="1" connect="1" arrows="1" fold="1" page="1" pageScale="1" pageWidth="2500" pageHeight="1600" math="0" shadow="0">
      <root>
        <mxCell id="0" />
        <mxCell id="1" parent="0" />
        <mxCell id="QVUtrMPiYn0LLZKiwOOT-13" value="" style="endArrow=classic;html=1;rounded=0;" parent="1" edge="1">
          <mxGeometry width="50" height="50" relative="1" as="geometry">
            <mxPoint x="220" y="170" as="sourcePoint" />
            <mxPoint x="220" y="1192" as="targetPoint" />
          </mxGeometry>
        </mxCell>
        <mxCell id="QVUtrMPiYn0LLZKiwOOT-14" value="时间轴" style="text;html=1;strokeColor=none;fillColor=none;align=center;verticalAlign=middle;whiteSpace=wrap;rounded=0;" parent="1" vertex="1">
          <mxGeometry x="150" y="180" width="60" height="30" as="geometry" />
        </mxCell>
        <mxCell id="QVUtrMPiYn0LLZKiwOOT-17" value="" style="edgeStyle=orthogonalEdgeStyle;rounded=0;orthogonalLoop=1;jettySize=auto;html=1;" parent="1" source="QVUtrMPiYn0LLZKiwOOT-15" target="QVUtrMPiYn0LLZKiwOOT-16" edge="1">
          <mxGeometry relative="1" as="geometry" />
        </mxCell>
        <mxCell id="QVUtrMPiYn0LLZKiwOOT-15" value="线程1（下单服务）" style="rounded=0;whiteSpace=wrap;html=1;fillColor=#f8cecc;strokeColor=#b85450;" parent="1" vertex="1">
          <mxGeometry x="360" y="170" width="120" height="50" as="geometry" />
        </mxCell>
        <mxCell id="QVUtrMPiYn0LLZKiwOOT-19" value="" style="edgeStyle=orthogonalEdgeStyle;rounded=0;orthogonalLoop=1;jettySize=auto;html=1;" parent="1" source="QVUtrMPiYn0LLZKiwOOT-16" target="QVUtrMPiYn0LLZKiwOOT-18" edge="1">
          <mxGeometry relative="1" as="geometry" />
        </mxCell>
        <mxCell id="QVUtrMPiYn0LLZKiwOOT-16" value="查询token" style="rounded=0;whiteSpace=wrap;html=1;fillColor=#f8cecc;strokeColor=#b85450;" parent="1" vertex="1">
          <mxGeometry x="360" y="240" width="120" height="50" as="geometry" />
        </mxCell>
        <mxCell id="QVUtrMPiYn0LLZKiwOOT-21" value="" style="edgeStyle=orthogonalEdgeStyle;rounded=0;orthogonalLoop=1;jettySize=auto;html=1;" parent="1" source="QVUtrMPiYn0LLZKiwOOT-18" target="QVUtrMPiYn0LLZKiwOOT-20" edge="1">
          <mxGeometry relative="1" as="geometry" />
        </mxCell>
        <mxCell id="QVUtrMPiYn0LLZKiwOOT-18" value="下单" style="rounded=0;whiteSpace=wrap;html=1;fillColor=#f8cecc;strokeColor=#b85450;" parent="1" vertex="1">
          <mxGeometry x="360" y="320" width="120" height="50" as="geometry" />
        </mxCell>
        <mxCell id="QVUtrMPiYn0LLZKiwOOT-45" value="" style="edgeStyle=orthogonalEdgeStyle;rounded=0;orthogonalLoop=1;jettySize=auto;html=1;" parent="1" source="QVUtrMPiYn0LLZKiwOOT-20" target="QVUtrMPiYn0LLZKiwOOT-44" edge="1">
          <mxGeometry relative="1" as="geometry" />
        </mxCell>
        <mxCell id="QVUtrMPiYn0LLZKiwOOT-20" value="发现token失效，清缓存" style="rounded=0;whiteSpace=wrap;html=1;fillColor=#f8cecc;strokeColor=#b85450;" parent="1" vertex="1">
          <mxGeometry x="360" y="420" width="120" height="50" as="geometry" />
        </mxCell>
        <mxCell id="QVUtrMPiYn0LLZKiwOOT-22" value="" style="edgeStyle=orthogonalEdgeStyle;rounded=0;orthogonalLoop=1;jettySize=auto;html=1;" parent="1" source="QVUtrMPiYn0LLZKiwOOT-23" target="QVUtrMPiYn0LLZKiwOOT-25" edge="1">
          <mxGeometry relative="1" as="geometry" />
        </mxCell>
        <mxCell id="QVUtrMPiYn0LLZKiwOOT-23" value="线程2（下单服务）" style="rounded=0;whiteSpace=wrap;html=1;fillColor=#dae8fc;strokeColor=#6c8ebf;" parent="1" vertex="1">
          <mxGeometry x="630" y="470" width="120" height="50" as="geometry" />
        </mxCell>
        <mxCell id="QVUtrMPiYn0LLZKiwOOT-24" value="" style="edgeStyle=orthogonalEdgeStyle;rounded=0;orthogonalLoop=1;jettySize=auto;html=1;" parent="1" source="QVUtrMPiYn0LLZKiwOOT-25" target="QVUtrMPiYn0LLZKiwOOT-27" edge="1">
          <mxGeometry relative="1" as="geometry" />
        </mxCell>
        <mxCell id="QVUtrMPiYn0LLZKiwOOT-25" value="查询token，缓存没有命中" style="rounded=0;whiteSpace=wrap;html=1;fillColor=#dae8fc;strokeColor=#6c8ebf;" parent="1" vertex="1">
          <mxGeometry x="630" y="560" width="120" height="50" as="geometry" />
        </mxCell>
        <mxCell id="QVUtrMPiYn0LLZKiwOOT-26" value="" style="edgeStyle=orthogonalEdgeStyle;rounded=0;orthogonalLoop=1;jettySize=auto;html=1;" parent="1" source="QVUtrMPiYn0LLZKiwOOT-27" target="QVUtrMPiYn0LLZKiwOOT-28" edge="1">
          <mxGeometry relative="1" as="geometry" />
        </mxCell>
        <mxCell id="QVUtrMPiYn0LLZKiwOOT-27" value="从oms获取token" style="rounded=0;whiteSpace=wrap;html=1;fillColor=#dae8fc;strokeColor=#6c8ebf;" parent="1" vertex="1">
          <mxGeometry x="630" y="640" width="120" height="50" as="geometry" />
        </mxCell>
        <mxCell id="QVUtrMPiYn0LLZKiwOOT-35" value="" style="edgeStyle=orthogonalEdgeStyle;rounded=0;orthogonalLoop=1;jettySize=auto;html=1;" parent="1" source="QVUtrMPiYn0LLZKiwOOT-28" target="QVUtrMPiYn0LLZKiwOOT-34" edge="1">
          <mxGeometry relative="1" as="geometry" />
        </mxCell>
        <mxCell id="QVUtrMPiYn0LLZKiwOOT-28" value="写入缓存" style="rounded=0;whiteSpace=wrap;html=1;fillColor=#dae8fc;strokeColor=#6c8ebf;" parent="1" vertex="1">
          <mxGeometry x="630" y="1030" width="120" height="50" as="geometry" />
        </mxCell>
        <mxCell id="QVUtrMPiYn0LLZKiwOOT-31" value="" style="edgeStyle=orthogonalEdgeStyle;rounded=0;orthogonalLoop=1;jettySize=auto;html=1;" parent="1" source="QVUtrMPiYn0LLZKiwOOT-29" target="QVUtrMPiYn0LLZKiwOOT-30" edge="1">
          <mxGeometry relative="1" as="geometry" />
        </mxCell>
        <mxCell id="QVUtrMPiYn0LLZKiwOOT-29" value="线程3（获取电子面单）" style="rounded=0;whiteSpace=wrap;html=1;fillColor=#d5e8d4;strokeColor=#82b366;" parent="1" vertex="1">
          <mxGeometry x="960" y="700" width="150" height="50" as="geometry" />
        </mxCell>
        <mxCell id="QVUtrMPiYn0LLZKiwOOT-37" value="" style="edgeStyle=orthogonalEdgeStyle;rounded=0;orthogonalLoop=1;jettySize=auto;html=1;" parent="1" source="QVUtrMPiYn0LLZKiwOOT-30" target="QVUtrMPiYn0LLZKiwOOT-36" edge="1">
          <mxGeometry relative="1" as="geometry" />
        </mxCell>
        <mxCell id="QVUtrMPiYn0LLZKiwOOT-30" value="数据库获取token，查询电子面单" style="rounded=0;whiteSpace=wrap;html=1;fillColor=#d5e8d4;strokeColor=#82b366;" parent="1" vertex="1">
          <mxGeometry x="960" y="790" width="150" height="50" as="geometry" />
        </mxCell>
        <mxCell id="QVUtrMPiYn0LLZKiwOOT-34" value="下单" style="rounded=0;whiteSpace=wrap;html=1;fillColor=#dae8fc;strokeColor=#6c8ebf;" parent="1" vertex="1">
          <mxGeometry x="630" y="1110" width="120" height="50" as="geometry" />
        </mxCell>
        <mxCell id="QVUtrMPiYn0LLZKiwOOT-39" value="" style="edgeStyle=orthogonalEdgeStyle;rounded=0;orthogonalLoop=1;jettySize=auto;html=1;" parent="1" source="QVUtrMPiYn0LLZKiwOOT-36" target="QVUtrMPiYn0LLZKiwOOT-38" edge="1">
          <mxGeometry relative="1" as="geometry" />
        </mxCell>
        <mxCell id="QVUtrMPiYn0LLZKiwOOT-36" value="token失效" style="rounded=0;whiteSpace=wrap;html=1;fillColor=#d5e8d4;strokeColor=#82b366;" parent="1" vertex="1">
          <mxGeometry x="960" y="870" width="150" height="50" as="geometry" />
        </mxCell>
        <mxCell id="QVUtrMPiYn0LLZKiwOOT-41" value="" style="edgeStyle=orthogonalEdgeStyle;rounded=0;orthogonalLoop=1;jettySize=auto;html=1;" parent="1" source="QVUtrMPiYn0LLZKiwOOT-38" target="QVUtrMPiYn0LLZKiwOOT-40" edge="1">
          <mxGeometry relative="1" as="geometry" />
        </mxCell>
        <mxCell id="QVUtrMPiYn0LLZKiwOOT-38" value="oms获取token" style="rounded=0;whiteSpace=wrap;html=1;fillColor=#d5e8d4;strokeColor=#82b366;" parent="1" vertex="1">
          <mxGeometry x="960" y="970" width="150" height="50" as="geometry" />
        </mxCell>
        <mxCell id="QVUtrMPiYn0LLZKiwOOT-43" value="" style="edgeStyle=orthogonalEdgeStyle;rounded=0;orthogonalLoop=1;jettySize=auto;html=1;" parent="1" source="QVUtrMPiYn0LLZKiwOOT-40" target="QVUtrMPiYn0LLZKiwOOT-42" edge="1">
          <mxGeometry relative="1" as="geometry" />
        </mxCell>
        <mxCell id="QVUtrMPiYn0LLZKiwOOT-40" value="更新数据库，更新缓存" style="rounded=0;whiteSpace=wrap;html=1;fillColor=#d5e8d4;strokeColor=#82b366;" parent="1" vertex="1">
          <mxGeometry x="960" y="1100" width="150" height="50" as="geometry" />
        </mxCell>
        <mxCell id="QVUtrMPiYn0LLZKiwOOT-42" value="重新查询" style="rounded=0;whiteSpace=wrap;html=1;fillColor=#d5e8d4;strokeColor=#82b366;" parent="1" vertex="1">
          <mxGeometry x="960" y="1230" width="150" height="50" as="geometry" />
        </mxCell>
        <mxCell id="QVUtrMPiYn0LLZKiwOOT-47" value="" style="edgeStyle=orthogonalEdgeStyle;rounded=0;orthogonalLoop=1;jettySize=auto;html=1;" parent="1" source="QVUtrMPiYn0LLZKiwOOT-44" target="QVUtrMPiYn0LLZKiwOOT-46" edge="1">
          <mxGeometry relative="1" as="geometry" />
        </mxCell>
        <mxCell id="QVUtrMPiYn0LLZKiwOOT-44" value="刷新缓存，从oms获取" style="rounded=0;whiteSpace=wrap;html=1;fillColor=#f8cecc;strokeColor=#b85450;" parent="1" vertex="1">
          <mxGeometry x="360" y="550" width="120" height="50" as="geometry" />
        </mxCell>
        <mxCell id="QVUtrMPiYn0LLZKiwOOT-46" value="更新数据库、缓存" style="rounded=0;whiteSpace=wrap;html=1;fillColor=#f8cecc;strokeColor=#b85450;" parent="1" vertex="1">
          <mxGeometry x="360" y="740" width="120" height="50" as="geometry" />
        </mxCell>
      </root>
    </mxGraphModel>
  </diagram>
  <diagram name="并发场景3" id="50ELHaY_RmKtdWsaTcEH">
    <mxGraphModel dx="1481" dy="739" grid="1" gridSize="10" guides="1" tooltips="1" connect="1" arrows="1" fold="1" page="1" pageScale="1" pageWidth="2500" pageHeight="1600" math="0" shadow="0">
      <root>
        <mxCell id="1jw8QHfVRLmXpWn9SeKl-0" />
        <mxCell id="1jw8QHfVRLmXpWn9SeKl-1" parent="1jw8QHfVRLmXpWn9SeKl-0" />
        <mxCell id="1jw8QHfVRLmXpWn9SeKl-2" value="" style="endArrow=classic;html=1;rounded=0;" edge="1" parent="1jw8QHfVRLmXpWn9SeKl-1">
          <mxGeometry width="50" height="50" relative="1" as="geometry">
            <mxPoint x="220" y="170" as="sourcePoint" />
            <mxPoint x="220" y="1192" as="targetPoint" />
          </mxGeometry>
        </mxCell>
        <mxCell id="1jw8QHfVRLmXpWn9SeKl-3" value="时间轴" style="text;html=1;strokeColor=none;fillColor=none;align=center;verticalAlign=middle;whiteSpace=wrap;rounded=0;" vertex="1" parent="1jw8QHfVRLmXpWn9SeKl-1">
          <mxGeometry x="150" y="180" width="60" height="30" as="geometry" />
        </mxCell>
        <mxCell id="1jw8QHfVRLmXpWn9SeKl-4" value="" style="edgeStyle=orthogonalEdgeStyle;rounded=0;orthogonalLoop=1;jettySize=auto;html=1;" edge="1" parent="1jw8QHfVRLmXpWn9SeKl-1" source="1jw8QHfVRLmXpWn9SeKl-5" target="1jw8QHfVRLmXpWn9SeKl-7">
          <mxGeometry relative="1" as="geometry" />
        </mxCell>
        <mxCell id="1jw8QHfVRLmXpWn9SeKl-5" value="线程1（下单服务）" style="rounded=0;whiteSpace=wrap;html=1;fillColor=#f8cecc;strokeColor=#b85450;" vertex="1" parent="1jw8QHfVRLmXpWn9SeKl-1">
          <mxGeometry x="360" y="170" width="120" height="50" as="geometry" />
        </mxCell>
        <mxCell id="1jw8QHfVRLmXpWn9SeKl-6" value="" style="edgeStyle=orthogonalEdgeStyle;rounded=0;orthogonalLoop=1;jettySize=auto;html=1;" edge="1" parent="1jw8QHfVRLmXpWn9SeKl-1" source="1jw8QHfVRLmXpWn9SeKl-7" target="1jw8QHfVRLmXpWn9SeKl-9">
          <mxGeometry relative="1" as="geometry" />
        </mxCell>
        <mxCell id="1jw8QHfVRLmXpWn9SeKl-7" value="查询token" style="rounded=0;whiteSpace=wrap;html=1;fillColor=#f8cecc;strokeColor=#b85450;" vertex="1" parent="1jw8QHfVRLmXpWn9SeKl-1">
          <mxGeometry x="360" y="240" width="120" height="50" as="geometry" />
        </mxCell>
        <mxCell id="1jw8QHfVRLmXpWn9SeKl-8" value="" style="edgeStyle=orthogonalEdgeStyle;rounded=0;orthogonalLoop=1;jettySize=auto;html=1;" edge="1" parent="1jw8QHfVRLmXpWn9SeKl-1" source="1jw8QHfVRLmXpWn9SeKl-9" target="1jw8QHfVRLmXpWn9SeKl-11">
          <mxGeometry relative="1" as="geometry" />
        </mxCell>
        <mxCell id="1jw8QHfVRLmXpWn9SeKl-9" value="redis失效，oms获取" style="rounded=0;whiteSpace=wrap;html=1;fillColor=#f8cecc;strokeColor=#b85450;" vertex="1" parent="1jw8QHfVRLmXpWn9SeKl-1">
          <mxGeometry x="360" y="350" width="120" height="50" as="geometry" />
        </mxCell>
        <mxCell id="1jw8QHfVRLmXpWn9SeKl-10" value="" style="edgeStyle=orthogonalEdgeStyle;rounded=0;orthogonalLoop=1;jettySize=auto;html=1;" edge="1" parent="1jw8QHfVRLmXpWn9SeKl-1" source="1jw8QHfVRLmXpWn9SeKl-11" target="1jw8QHfVRLmXpWn9SeKl-33">
          <mxGeometry relative="1" as="geometry" />
        </mxCell>
        <mxCell id="1jw8QHfVRLmXpWn9SeKl-11" value="缓存token&lt;br&gt;（这里缓存到了旧的token）" style="rounded=0;whiteSpace=wrap;html=1;fillColor=#f8cecc;strokeColor=#b85450;" vertex="1" parent="1jw8QHfVRLmXpWn9SeKl-1">
          <mxGeometry x="360" y="700" width="120" height="50" as="geometry" />
        </mxCell>
        <mxCell id="1jw8QHfVRLmXpWn9SeKl-12" value="" style="edgeStyle=orthogonalEdgeStyle;rounded=0;orthogonalLoop=1;jettySize=auto;html=1;" edge="1" parent="1jw8QHfVRLmXpWn9SeKl-1" source="1jw8QHfVRLmXpWn9SeKl-13" target="1jw8QHfVRLmXpWn9SeKl-15">
          <mxGeometry relative="1" as="geometry" />
        </mxCell>
        <mxCell id="1jw8QHfVRLmXpWn9SeKl-13" value="线程2（下单服务）" style="rounded=0;whiteSpace=wrap;html=1;fillColor=#dae8fc;strokeColor=#6c8ebf;" vertex="1" parent="1jw8QHfVRLmXpWn9SeKl-1">
          <mxGeometry x="640" y="250" width="120" height="50" as="geometry" />
        </mxCell>
        <mxCell id="1jw8QHfVRLmXpWn9SeKl-14" value="" style="edgeStyle=orthogonalEdgeStyle;rounded=0;orthogonalLoop=1;jettySize=auto;html=1;" edge="1" parent="1jw8QHfVRLmXpWn9SeKl-1" source="1jw8QHfVRLmXpWn9SeKl-15" target="1jw8QHfVRLmXpWn9SeKl-17">
          <mxGeometry relative="1" as="geometry" />
        </mxCell>
        <mxCell id="1jw8QHfVRLmXpWn9SeKl-15" value="查询token，缓存没有命中" style="rounded=0;whiteSpace=wrap;html=1;fillColor=#dae8fc;strokeColor=#6c8ebf;" vertex="1" parent="1jw8QHfVRLmXpWn9SeKl-1">
          <mxGeometry x="640" y="340" width="120" height="50" as="geometry" />
        </mxCell>
        <mxCell id="1jw8QHfVRLmXpWn9SeKl-16" value="" style="edgeStyle=orthogonalEdgeStyle;rounded=0;orthogonalLoop=1;jettySize=auto;html=1;" edge="1" parent="1jw8QHfVRLmXpWn9SeKl-1" source="1jw8QHfVRLmXpWn9SeKl-17" target="1jw8QHfVRLmXpWn9SeKl-19">
          <mxGeometry relative="1" as="geometry" />
        </mxCell>
        <mxCell id="1jw8QHfVRLmXpWn9SeKl-17" value="从oms获取token&lt;br&gt;（这时之前的token刚失效，获取到新的token)" style="rounded=0;whiteSpace=wrap;html=1;fillColor=#dae8fc;strokeColor=#6c8ebf;" vertex="1" parent="1jw8QHfVRLmXpWn9SeKl-1">
          <mxGeometry x="625" y="450" width="150" height="50" as="geometry" />
        </mxCell>
        <mxCell id="1jw8QHfVRLmXpWn9SeKl-18" value="" style="edgeStyle=orthogonalEdgeStyle;rounded=0;orthogonalLoop=1;jettySize=auto;html=1;" edge="1" parent="1jw8QHfVRLmXpWn9SeKl-1" source="1jw8QHfVRLmXpWn9SeKl-19" target="1jw8QHfVRLmXpWn9SeKl-24">
          <mxGeometry relative="1" as="geometry" />
        </mxCell>
        <mxCell id="1jw8QHfVRLmXpWn9SeKl-19" value="写入缓存" style="rounded=0;whiteSpace=wrap;html=1;fillColor=#dae8fc;strokeColor=#6c8ebf;" vertex="1" parent="1jw8QHfVRLmXpWn9SeKl-1">
          <mxGeometry x="640" y="540" width="120" height="50" as="geometry" />
        </mxCell>
        <mxCell id="1jw8QHfVRLmXpWn9SeKl-20" value="" style="edgeStyle=orthogonalEdgeStyle;rounded=0;orthogonalLoop=1;jettySize=auto;html=1;" edge="1" parent="1jw8QHfVRLmXpWn9SeKl-1" source="1jw8QHfVRLmXpWn9SeKl-21" target="1jw8QHfVRLmXpWn9SeKl-23">
          <mxGeometry relative="1" as="geometry" />
        </mxCell>
        <mxCell id="1jw8QHfVRLmXpWn9SeKl-21" value="线程3（获取电子面单）" style="rounded=0;whiteSpace=wrap;html=1;fillColor=#d5e8d4;strokeColor=#82b366;" vertex="1" parent="1jw8QHfVRLmXpWn9SeKl-1">
          <mxGeometry x="970" y="600" width="150" height="50" as="geometry" />
        </mxCell>
        <mxCell id="1jw8QHfVRLmXpWn9SeKl-22" value="" style="edgeStyle=orthogonalEdgeStyle;rounded=0;orthogonalLoop=1;jettySize=auto;html=1;" edge="1" parent="1jw8QHfVRLmXpWn9SeKl-1" source="1jw8QHfVRLmXpWn9SeKl-23" target="1jw8QHfVRLmXpWn9SeKl-26">
          <mxGeometry relative="1" as="geometry" />
        </mxCell>
        <mxCell id="1jw8QHfVRLmXpWn9SeKl-23" value="数据库获取token，查询电子面单" style="rounded=0;whiteSpace=wrap;html=1;fillColor=#d5e8d4;strokeColor=#82b366;" vertex="1" parent="1jw8QHfVRLmXpWn9SeKl-1">
          <mxGeometry x="970" y="690" width="150" height="50" as="geometry" />
        </mxCell>
        <mxCell id="1jw8QHfVRLmXpWn9SeKl-24" value="下单" style="rounded=0;whiteSpace=wrap;html=1;fillColor=#dae8fc;strokeColor=#6c8ebf;" vertex="1" parent="1jw8QHfVRLmXpWn9SeKl-1">
          <mxGeometry x="640" y="630" width="120" height="50" as="geometry" />
        </mxCell>
        <mxCell id="1jw8QHfVRLmXpWn9SeKl-25" value="" style="edgeStyle=orthogonalEdgeStyle;rounded=0;orthogonalLoop=1;jettySize=auto;html=1;" edge="1" parent="1jw8QHfVRLmXpWn9SeKl-1" source="1jw8QHfVRLmXpWn9SeKl-26" target="1jw8QHfVRLmXpWn9SeKl-28">
          <mxGeometry relative="1" as="geometry" />
        </mxCell>
        <mxCell id="1jw8QHfVRLmXpWn9SeKl-26" value="token失效" style="rounded=0;whiteSpace=wrap;html=1;fillColor=#d5e8d4;strokeColor=#82b366;" vertex="1" parent="1jw8QHfVRLmXpWn9SeKl-1">
          <mxGeometry x="970" y="770" width="150" height="50" as="geometry" />
        </mxCell>
        <mxCell id="1jw8QHfVRLmXpWn9SeKl-27" value="" style="edgeStyle=orthogonalEdgeStyle;rounded=0;orthogonalLoop=1;jettySize=auto;html=1;" edge="1" parent="1jw8QHfVRLmXpWn9SeKl-1" source="1jw8QHfVRLmXpWn9SeKl-28" target="1jw8QHfVRLmXpWn9SeKl-30">
          <mxGeometry relative="1" as="geometry" />
        </mxCell>
        <mxCell id="1jw8QHfVRLmXpWn9SeKl-28" value="oms获取token" style="rounded=0;whiteSpace=wrap;html=1;fillColor=#d5e8d4;strokeColor=#82b366;" vertex="1" parent="1jw8QHfVRLmXpWn9SeKl-1">
          <mxGeometry x="970" y="870" width="150" height="50" as="geometry" />
        </mxCell>
        <mxCell id="1jw8QHfVRLmXpWn9SeKl-29" value="" style="edgeStyle=orthogonalEdgeStyle;rounded=0;orthogonalLoop=1;jettySize=auto;html=1;" edge="1" parent="1jw8QHfVRLmXpWn9SeKl-1" source="1jw8QHfVRLmXpWn9SeKl-30" target="1jw8QHfVRLmXpWn9SeKl-31">
          <mxGeometry relative="1" as="geometry" />
        </mxCell>
        <mxCell id="1jw8QHfVRLmXpWn9SeKl-30" value="更新数据库，更新缓存" style="rounded=0;whiteSpace=wrap;html=1;fillColor=#d5e8d4;strokeColor=#82b366;" vertex="1" parent="1jw8QHfVRLmXpWn9SeKl-1">
          <mxGeometry x="970" y="1000" width="150" height="50" as="geometry" />
        </mxCell>
        <mxCell id="1jw8QHfVRLmXpWn9SeKl-31" value="重新查询" style="rounded=0;whiteSpace=wrap;html=1;fillColor=#d5e8d4;strokeColor=#82b366;" vertex="1" parent="1jw8QHfVRLmXpWn9SeKl-1">
          <mxGeometry x="970" y="1130" width="150" height="50" as="geometry" />
        </mxCell>
        <mxCell id="1jw8QHfVRLmXpWn9SeKl-32" value="" style="edgeStyle=orthogonalEdgeStyle;rounded=0;orthogonalLoop=1;jettySize=auto;html=1;" edge="1" parent="1jw8QHfVRLmXpWn9SeKl-1" source="1jw8QHfVRLmXpWn9SeKl-33" target="1jw8QHfVRLmXpWn9SeKl-34">
          <mxGeometry relative="1" as="geometry" />
        </mxCell>
        <mxCell id="1jw8QHfVRLmXpWn9SeKl-33" value="下单" style="rounded=0;whiteSpace=wrap;html=1;fillColor=#f8cecc;strokeColor=#b85450;" vertex="1" parent="1jw8QHfVRLmXpWn9SeKl-1">
          <mxGeometry x="360" y="790" width="120" height="50" as="geometry" />
        </mxCell>
        <mxCell id="18a21UUfxybw60C99qkt-16" style="edgeStyle=orthogonalEdgeStyle;rounded=0;orthogonalLoop=1;jettySize=auto;html=1;" edge="1" parent="1jw8QHfVRLmXpWn9SeKl-1" source="1jw8QHfVRLmXpWn9SeKl-34" target="18a21UUfxybw60C99qkt-15">
          <mxGeometry relative="1" as="geometry" />
        </mxCell>
        <mxCell id="1jw8QHfVRLmXpWn9SeKl-34" value="发现token失效，清缓存" style="rounded=0;whiteSpace=wrap;html=1;fillColor=#f8cecc;strokeColor=#b85450;" vertex="1" parent="1jw8QHfVRLmXpWn9SeKl-1">
          <mxGeometry x="360" y="1060" width="120" height="50" as="geometry" />
        </mxCell>
        <mxCell id="18a21UUfxybw60C99qkt-0" value="线程2（下单服务）" style="rounded=0;whiteSpace=wrap;html=1;fillColor=#dae8fc;strokeColor=#6c8ebf;" vertex="1" parent="1jw8QHfVRLmXpWn9SeKl-1">
          <mxGeometry x="640" y="250" width="120" height="50" as="geometry" />
        </mxCell>
        <mxCell id="18a21UUfxybw60C99qkt-1" value="查询token，缓存没有命中" style="rounded=0;whiteSpace=wrap;html=1;fillColor=#dae8fc;strokeColor=#6c8ebf;" vertex="1" parent="1jw8QHfVRLmXpWn9SeKl-1">
          <mxGeometry x="640" y="340" width="120" height="50" as="geometry" />
        </mxCell>
        <mxCell id="18a21UUfxybw60C99qkt-2" value="从oms获取token&lt;br&gt;（这时之前的token刚失效，获取到新的token)" style="rounded=0;whiteSpace=wrap;html=1;fillColor=#dae8fc;strokeColor=#6c8ebf;" vertex="1" parent="1jw8QHfVRLmXpWn9SeKl-1">
          <mxGeometry x="625" y="450" width="150" height="50" as="geometry" />
        </mxCell>
        <mxCell id="18a21UUfxybw60C99qkt-3" value="线程2（下单服务）" style="rounded=0;whiteSpace=wrap;html=1;fillColor=#dae8fc;strokeColor=#6c8ebf;" vertex="1" parent="1jw8QHfVRLmXpWn9SeKl-1">
          <mxGeometry x="640" y="250" width="120" height="50" as="geometry" />
        </mxCell>
        <mxCell id="18a21UUfxybw60C99qkt-4" value="查询token，缓存没有命中" style="rounded=0;whiteSpace=wrap;html=1;fillColor=#dae8fc;strokeColor=#6c8ebf;" vertex="1" parent="1jw8QHfVRLmXpWn9SeKl-1">
          <mxGeometry x="640" y="340" width="120" height="50" as="geometry" />
        </mxCell>
        <mxCell id="18a21UUfxybw60C99qkt-5" value="从oms获取token&lt;br&gt;（这时之前的token刚失效，获取到新的token)" style="rounded=0;whiteSpace=wrap;html=1;fillColor=#dae8fc;strokeColor=#6c8ebf;" vertex="1" parent="1jw8QHfVRLmXpWn9SeKl-1">
          <mxGeometry x="625" y="450" width="150" height="50" as="geometry" />
        </mxCell>
        <mxCell id="18a21UUfxybw60C99qkt-11" style="edgeStyle=orthogonalEdgeStyle;rounded=0;orthogonalLoop=1;jettySize=auto;html=1;" edge="1" parent="1jw8QHfVRLmXpWn9SeKl-1" source="18a21UUfxybw60C99qkt-6" target="18a21UUfxybw60C99qkt-7">
          <mxGeometry relative="1" as="geometry" />
        </mxCell>
        <mxCell id="18a21UUfxybw60C99qkt-6" value="线程4（下单服务）" style="rounded=0;whiteSpace=wrap;html=1;fillColor=#dae8fc;strokeColor=#6c8ebf;" vertex="1" parent="1jw8QHfVRLmXpWn9SeKl-1">
          <mxGeometry x="1275" y="1150" width="120" height="50" as="geometry" />
        </mxCell>
        <mxCell id="18a21UUfxybw60C99qkt-18" style="edgeStyle=orthogonalEdgeStyle;rounded=0;orthogonalLoop=1;jettySize=auto;html=1;" edge="1" parent="1jw8QHfVRLmXpWn9SeKl-1" source="18a21UUfxybw60C99qkt-7" target="18a21UUfxybw60C99qkt-10">
          <mxGeometry relative="1" as="geometry" />
        </mxCell>
        <mxCell id="18a21UUfxybw60C99qkt-7" value="查询token，缓存命中" style="rounded=0;whiteSpace=wrap;html=1;fillColor=#dae8fc;strokeColor=#6c8ebf;" vertex="1" parent="1jw8QHfVRLmXpWn9SeKl-1">
          <mxGeometry x="1275" y="1240" width="120" height="50" as="geometry" />
        </mxCell>
        <mxCell id="18a21UUfxybw60C99qkt-10" value="下单" style="rounded=0;whiteSpace=wrap;html=1;fillColor=#dae8fc;strokeColor=#6c8ebf;" vertex="1" parent="1jw8QHfVRLmXpWn9SeKl-1">
          <mxGeometry x="1275" y="1340" width="120" height="50" as="geometry" />
        </mxCell>
        <mxCell id="18a21UUfxybw60C99qkt-15" value="更新数据库，更新缓存" style="rounded=0;whiteSpace=wrap;html=1;fillColor=#f8cecc;strokeColor=#b85450;" vertex="1" parent="1jw8QHfVRLmXpWn9SeKl-1">
          <mxGeometry x="345" y="1160" width="150" height="50" as="geometry" />
        </mxCell>
      </root>
    </mxGraphModel>
  </diagram>
  <diagram name="并发场景4" id="ozdidsw5Twibsrw229WP">
    <mxGraphModel dx="1259" dy="628" grid="1" gridSize="10" guides="1" tooltips="1" connect="1" arrows="1" fold="1" page="1" pageScale="1" pageWidth="2500" pageHeight="1600" math="0" shadow="0">
      <root>
        <mxCell id="nPCSLdtvgReJJPaQ8-DK-0" />
        <mxCell id="nPCSLdtvgReJJPaQ8-DK-1" parent="nPCSLdtvgReJJPaQ8-DK-0" />
        <mxCell id="nPCSLdtvgReJJPaQ8-DK-2" value="" style="endArrow=classic;html=1;rounded=0;" edge="1" parent="nPCSLdtvgReJJPaQ8-DK-1">
          <mxGeometry width="50" height="50" relative="1" as="geometry">
            <mxPoint x="220" y="170" as="sourcePoint" />
            <mxPoint x="220" y="1192" as="targetPoint" />
          </mxGeometry>
        </mxCell>
        <mxCell id="nPCSLdtvgReJJPaQ8-DK-3" value="时间轴" style="text;html=1;strokeColor=none;fillColor=none;align=center;verticalAlign=middle;whiteSpace=wrap;rounded=0;" vertex="1" parent="nPCSLdtvgReJJPaQ8-DK-1">
          <mxGeometry x="150" y="180" width="60" height="30" as="geometry" />
        </mxCell>
        <mxCell id="nPCSLdtvgReJJPaQ8-DK-4" value="" style="edgeStyle=orthogonalEdgeStyle;rounded=0;orthogonalLoop=1;jettySize=auto;html=1;" edge="1" parent="nPCSLdtvgReJJPaQ8-DK-1" source="nPCSLdtvgReJJPaQ8-DK-5" target="nPCSLdtvgReJJPaQ8-DK-7">
          <mxGeometry relative="1" as="geometry" />
        </mxCell>
        <mxCell id="nPCSLdtvgReJJPaQ8-DK-5" value="线程1（下单服务）" style="rounded=0;whiteSpace=wrap;html=1;fillColor=#f8cecc;strokeColor=#b85450;" vertex="1" parent="nPCSLdtvgReJJPaQ8-DK-1">
          <mxGeometry x="360" y="170" width="120" height="50" as="geometry" />
        </mxCell>
        <mxCell id="nPCSLdtvgReJJPaQ8-DK-6" value="" style="edgeStyle=orthogonalEdgeStyle;rounded=0;orthogonalLoop=1;jettySize=auto;html=1;" edge="1" parent="nPCSLdtvgReJJPaQ8-DK-1" source="nPCSLdtvgReJJPaQ8-DK-7" target="nPCSLdtvgReJJPaQ8-DK-9">
          <mxGeometry relative="1" as="geometry" />
        </mxCell>
        <mxCell id="nPCSLdtvgReJJPaQ8-DK-7" value="查询token" style="rounded=0;whiteSpace=wrap;html=1;fillColor=#f8cecc;strokeColor=#b85450;" vertex="1" parent="nPCSLdtvgReJJPaQ8-DK-1">
          <mxGeometry x="360" y="240" width="120" height="50" as="geometry" />
        </mxCell>
        <mxCell id="nPCSLdtvgReJJPaQ8-DK-8" value="" style="edgeStyle=orthogonalEdgeStyle;rounded=0;orthogonalLoop=1;jettySize=auto;html=1;" edge="1" parent="nPCSLdtvgReJJPaQ8-DK-1" source="nPCSLdtvgReJJPaQ8-DK-9" target="nPCSLdtvgReJJPaQ8-DK-11">
          <mxGeometry relative="1" as="geometry" />
        </mxCell>
        <mxCell id="nPCSLdtvgReJJPaQ8-DK-9" value="redis失效，oms获取" style="rounded=0;whiteSpace=wrap;html=1;fillColor=#f8cecc;strokeColor=#b85450;" vertex="1" parent="nPCSLdtvgReJJPaQ8-DK-1">
          <mxGeometry x="360" y="350" width="120" height="50" as="geometry" />
        </mxCell>
        <mxCell id="nPCSLdtvgReJJPaQ8-DK-10" value="" style="edgeStyle=orthogonalEdgeStyle;rounded=0;orthogonalLoop=1;jettySize=auto;html=1;" edge="1" parent="nPCSLdtvgReJJPaQ8-DK-1" source="nPCSLdtvgReJJPaQ8-DK-11" target="nPCSLdtvgReJJPaQ8-DK-33">
          <mxGeometry relative="1" as="geometry" />
        </mxCell>
        <mxCell id="nPCSLdtvgReJJPaQ8-DK-11" value="缓存token&lt;br&gt;（这里缓存到了旧的token）" style="rounded=0;whiteSpace=wrap;html=1;fillColor=#f8cecc;strokeColor=#b85450;" vertex="1" parent="nPCSLdtvgReJJPaQ8-DK-1">
          <mxGeometry x="360" y="700" width="120" height="50" as="geometry" />
        </mxCell>
        <mxCell id="nPCSLdtvgReJJPaQ8-DK-12" value="" style="edgeStyle=orthogonalEdgeStyle;rounded=0;orthogonalLoop=1;jettySize=auto;html=1;" edge="1" parent="nPCSLdtvgReJJPaQ8-DK-1" source="nPCSLdtvgReJJPaQ8-DK-13" target="nPCSLdtvgReJJPaQ8-DK-15">
          <mxGeometry relative="1" as="geometry" />
        </mxCell>
        <mxCell id="nPCSLdtvgReJJPaQ8-DK-13" value="线程2（下单服务）" style="rounded=0;whiteSpace=wrap;html=1;fillColor=#dae8fc;strokeColor=#6c8ebf;" vertex="1" parent="nPCSLdtvgReJJPaQ8-DK-1">
          <mxGeometry x="640" y="250" width="120" height="50" as="geometry" />
        </mxCell>
        <mxCell id="nPCSLdtvgReJJPaQ8-DK-14" value="" style="edgeStyle=orthogonalEdgeStyle;rounded=0;orthogonalLoop=1;jettySize=auto;html=1;" edge="1" parent="nPCSLdtvgReJJPaQ8-DK-1" source="nPCSLdtvgReJJPaQ8-DK-15" target="nPCSLdtvgReJJPaQ8-DK-17">
          <mxGeometry relative="1" as="geometry" />
        </mxCell>
        <mxCell id="nPCSLdtvgReJJPaQ8-DK-15" value="查询token，缓存没有命中" style="rounded=0;whiteSpace=wrap;html=1;fillColor=#dae8fc;strokeColor=#6c8ebf;" vertex="1" parent="nPCSLdtvgReJJPaQ8-DK-1">
          <mxGeometry x="640" y="340" width="120" height="50" as="geometry" />
        </mxCell>
        <mxCell id="nPCSLdtvgReJJPaQ8-DK-16" value="" style="edgeStyle=orthogonalEdgeStyle;rounded=0;orthogonalLoop=1;jettySize=auto;html=1;" edge="1" parent="nPCSLdtvgReJJPaQ8-DK-1" source="nPCSLdtvgReJJPaQ8-DK-17" target="nPCSLdtvgReJJPaQ8-DK-19">
          <mxGeometry relative="1" as="geometry" />
        </mxCell>
        <mxCell id="nPCSLdtvgReJJPaQ8-DK-17" value="从oms获取token&lt;br&gt;（这时之前的token刚失效，获取到新的token)" style="rounded=0;whiteSpace=wrap;html=1;fillColor=#dae8fc;strokeColor=#6c8ebf;" vertex="1" parent="nPCSLdtvgReJJPaQ8-DK-1">
          <mxGeometry x="625" y="450" width="150" height="50" as="geometry" />
        </mxCell>
        <mxCell id="nPCSLdtvgReJJPaQ8-DK-18" value="" style="edgeStyle=orthogonalEdgeStyle;rounded=0;orthogonalLoop=1;jettySize=auto;html=1;" edge="1" parent="nPCSLdtvgReJJPaQ8-DK-1" source="nPCSLdtvgReJJPaQ8-DK-19" target="nPCSLdtvgReJJPaQ8-DK-24">
          <mxGeometry relative="1" as="geometry" />
        </mxCell>
        <mxCell id="nPCSLdtvgReJJPaQ8-DK-19" value="写入缓存" style="rounded=0;whiteSpace=wrap;html=1;fillColor=#dae8fc;strokeColor=#6c8ebf;" vertex="1" parent="nPCSLdtvgReJJPaQ8-DK-1">
          <mxGeometry x="640" y="540" width="120" height="50" as="geometry" />
        </mxCell>
        <mxCell id="nPCSLdtvgReJJPaQ8-DK-24" value="下单" style="rounded=0;whiteSpace=wrap;html=1;fillColor=#dae8fc;strokeColor=#6c8ebf;" vertex="1" parent="nPCSLdtvgReJJPaQ8-DK-1">
          <mxGeometry x="640" y="630" width="120" height="50" as="geometry" />
        </mxCell>
        <mxCell id="nPCSLdtvgReJJPaQ8-DK-32" value="" style="edgeStyle=orthogonalEdgeStyle;rounded=0;orthogonalLoop=1;jettySize=auto;html=1;" edge="1" parent="nPCSLdtvgReJJPaQ8-DK-1" source="nPCSLdtvgReJJPaQ8-DK-33" target="nPCSLdtvgReJJPaQ8-DK-35">
          <mxGeometry relative="1" as="geometry" />
        </mxCell>
        <mxCell id="nPCSLdtvgReJJPaQ8-DK-33" value="下单" style="rounded=0;whiteSpace=wrap;html=1;fillColor=#f8cecc;strokeColor=#b85450;" vertex="1" parent="nPCSLdtvgReJJPaQ8-DK-1">
          <mxGeometry x="360" y="790" width="120" height="50" as="geometry" />
        </mxCell>
        <mxCell id="nPCSLdtvgReJJPaQ8-DK-34" style="edgeStyle=orthogonalEdgeStyle;rounded=0;orthogonalLoop=1;jettySize=auto;html=1;" edge="1" parent="nPCSLdtvgReJJPaQ8-DK-1" source="nPCSLdtvgReJJPaQ8-DK-35" target="nPCSLdtvgReJJPaQ8-DK-47">
          <mxGeometry relative="1" as="geometry" />
        </mxCell>
        <mxCell id="nPCSLdtvgReJJPaQ8-DK-35" value="发现token失效，清缓存" style="rounded=0;whiteSpace=wrap;html=1;fillColor=#f8cecc;strokeColor=#b85450;" vertex="1" parent="nPCSLdtvgReJJPaQ8-DK-1">
          <mxGeometry x="360" y="1060" width="120" height="50" as="geometry" />
        </mxCell>
        <mxCell id="nPCSLdtvgReJJPaQ8-DK-36" value="线程2（下单服务）" style="rounded=0;whiteSpace=wrap;html=1;fillColor=#dae8fc;strokeColor=#6c8ebf;" vertex="1" parent="nPCSLdtvgReJJPaQ8-DK-1">
          <mxGeometry x="640" y="250" width="120" height="50" as="geometry" />
        </mxCell>
        <mxCell id="nPCSLdtvgReJJPaQ8-DK-37" value="查询token，缓存没有命中" style="rounded=0;whiteSpace=wrap;html=1;fillColor=#dae8fc;strokeColor=#6c8ebf;" vertex="1" parent="nPCSLdtvgReJJPaQ8-DK-1">
          <mxGeometry x="640" y="340" width="120" height="50" as="geometry" />
        </mxCell>
        <mxCell id="nPCSLdtvgReJJPaQ8-DK-38" value="从oms获取token&lt;br&gt;（这时之前的token刚失效，获取到新的token)" style="rounded=0;whiteSpace=wrap;html=1;fillColor=#dae8fc;strokeColor=#6c8ebf;" vertex="1" parent="nPCSLdtvgReJJPaQ8-DK-1">
          <mxGeometry x="625" y="450" width="150" height="50" as="geometry" />
        </mxCell>
        <mxCell id="nPCSLdtvgReJJPaQ8-DK-39" value="线程2（下单服务）" style="rounded=0;whiteSpace=wrap;html=1;fillColor=#dae8fc;strokeColor=#6c8ebf;" vertex="1" parent="nPCSLdtvgReJJPaQ8-DK-1">
          <mxGeometry x="640" y="250" width="120" height="50" as="geometry" />
        </mxCell>
        <mxCell id="nPCSLdtvgReJJPaQ8-DK-40" value="查询token，缓存没有命中" style="rounded=0;whiteSpace=wrap;html=1;fillColor=#dae8fc;strokeColor=#6c8ebf;" vertex="1" parent="nPCSLdtvgReJJPaQ8-DK-1">
          <mxGeometry x="640" y="340" width="120" height="50" as="geometry" />
        </mxCell>
        <mxCell id="nPCSLdtvgReJJPaQ8-DK-41" value="从oms获取token&lt;br&gt;（这时之前的token刚失效，获取到新的token)" style="rounded=0;whiteSpace=wrap;html=1;fillColor=#dae8fc;strokeColor=#6c8ebf;" vertex="1" parent="nPCSLdtvgReJJPaQ8-DK-1">
          <mxGeometry x="625" y="450" width="150" height="50" as="geometry" />
        </mxCell>
        <mxCell id="nPCSLdtvgReJJPaQ8-DK-42" style="edgeStyle=orthogonalEdgeStyle;rounded=0;orthogonalLoop=1;jettySize=auto;html=1;" edge="1" parent="nPCSLdtvgReJJPaQ8-DK-1" source="nPCSLdtvgReJJPaQ8-DK-43" target="nPCSLdtvgReJJPaQ8-DK-45">
          <mxGeometry relative="1" as="geometry" />
        </mxCell>
        <mxCell id="nPCSLdtvgReJJPaQ8-DK-43" value="线程4（下单服务）" style="rounded=0;whiteSpace=wrap;html=1;fillColor=#dae8fc;strokeColor=#6c8ebf;" vertex="1" parent="nPCSLdtvgReJJPaQ8-DK-1">
          <mxGeometry x="1040" y="760" width="120" height="50" as="geometry" />
        </mxCell>
        <mxCell id="nPCSLdtvgReJJPaQ8-DK-44" style="edgeStyle=orthogonalEdgeStyle;rounded=0;orthogonalLoop=1;jettySize=auto;html=1;" edge="1" parent="nPCSLdtvgReJJPaQ8-DK-1" source="nPCSLdtvgReJJPaQ8-DK-45" target="nPCSLdtvgReJJPaQ8-DK-46">
          <mxGeometry relative="1" as="geometry" />
        </mxCell>
        <mxCell id="nPCSLdtvgReJJPaQ8-DK-45" value="查询token，缓存命中" style="rounded=0;whiteSpace=wrap;html=1;fillColor=#dae8fc;strokeColor=#6c8ebf;" vertex="1" parent="nPCSLdtvgReJJPaQ8-DK-1">
          <mxGeometry x="1040" y="840" width="120" height="50" as="geometry" />
        </mxCell>
        <mxCell id="z42WWX7Y8EaZ8JFeVbRS-1" style="edgeStyle=orthogonalEdgeStyle;rounded=0;orthogonalLoop=1;jettySize=auto;html=1;entryX=0.5;entryY=0;entryDx=0;entryDy=0;" edge="1" parent="nPCSLdtvgReJJPaQ8-DK-1" source="nPCSLdtvgReJJPaQ8-DK-46" target="z42WWX7Y8EaZ8JFeVbRS-0">
          <mxGeometry relative="1" as="geometry" />
        </mxCell>
        <mxCell id="nPCSLdtvgReJJPaQ8-DK-46" value="下单" style="rounded=0;whiteSpace=wrap;html=1;fillColor=#dae8fc;strokeColor=#6c8ebf;" vertex="1" parent="nPCSLdtvgReJJPaQ8-DK-1">
          <mxGeometry x="1040" y="910" width="120" height="50" as="geometry" />
        </mxCell>
        <mxCell id="nPCSLdtvgReJJPaQ8-DK-47" value="更新数据库，更新缓存" style="rounded=0;whiteSpace=wrap;html=1;fillColor=#f8cecc;strokeColor=#b85450;" vertex="1" parent="nPCSLdtvgReJJPaQ8-DK-1">
          <mxGeometry x="345" y="1160" width="150" height="50" as="geometry" />
        </mxCell>
        <mxCell id="z42WWX7Y8EaZ8JFeVbRS-3" style="edgeStyle=orthogonalEdgeStyle;rounded=0;orthogonalLoop=1;jettySize=auto;html=1;entryX=0.5;entryY=0;entryDx=0;entryDy=0;" edge="1" parent="nPCSLdtvgReJJPaQ8-DK-1" source="z42WWX7Y8EaZ8JFeVbRS-0" target="z42WWX7Y8EaZ8JFeVbRS-2">
          <mxGeometry relative="1" as="geometry" />
        </mxCell>
        <mxCell id="z42WWX7Y8EaZ8JFeVbRS-0" value="发现token失效，清缓存" style="rounded=0;whiteSpace=wrap;html=1;fillColor=#dae8fc;strokeColor=#6c8ebf;" vertex="1" parent="nPCSLdtvgReJJPaQ8-DK-1">
          <mxGeometry x="1040" y="990" width="120" height="50" as="geometry" />
        </mxCell>
        <mxCell id="z42WWX7Y8EaZ8JFeVbRS-2" value="更新数据库，更新缓存" style="rounded=0;whiteSpace=wrap;html=1;fillColor=#dae8fc;strokeColor=#6c8ebf;" vertex="1" parent="nPCSLdtvgReJJPaQ8-DK-1">
          <mxGeometry x="1025" y="1080" width="150" height="50" as="geometry" />
        </mxCell>
      </root>
    </mxGraphModel>
  </diagram>
  <diagram name="并发场景2" id="zdZPymKKcIhDEkqP4Sby">
    <mxGraphModel dx="1434" dy="708" grid="1" gridSize="10" guides="1" tooltips="1" connect="1" arrows="1" fold="1" page="1" pageScale="1" pageWidth="2500" pageHeight="1600" math="0" shadow="0">
      <root>
        <mxCell id="4NG9Z1Q3sR3ihpWhmhDE-0" />
        <mxCell id="4NG9Z1Q3sR3ihpWhmhDE-1" parent="4NG9Z1Q3sR3ihpWhmhDE-0" />
        <mxCell id="4NG9Z1Q3sR3ihpWhmhDE-2" value="" style="endArrow=classic;html=1;rounded=0;" parent="4NG9Z1Q3sR3ihpWhmhDE-1" edge="1">
          <mxGeometry width="50" height="50" relative="1" as="geometry">
            <mxPoint x="220" y="170" as="sourcePoint" />
            <mxPoint x="220" y="1192" as="targetPoint" />
          </mxGeometry>
        </mxCell>
        <mxCell id="4NG9Z1Q3sR3ihpWhmhDE-3" value="时间轴" style="text;html=1;strokeColor=none;fillColor=none;align=center;verticalAlign=middle;whiteSpace=wrap;rounded=0;" parent="4NG9Z1Q3sR3ihpWhmhDE-1" vertex="1">
          <mxGeometry x="150" y="180" width="60" height="30" as="geometry" />
        </mxCell>
        <mxCell id="4NG9Z1Q3sR3ihpWhmhDE-4" value="" style="edgeStyle=orthogonalEdgeStyle;rounded=0;orthogonalLoop=1;jettySize=auto;html=1;" parent="4NG9Z1Q3sR3ihpWhmhDE-1" source="4NG9Z1Q3sR3ihpWhmhDE-5" target="4NG9Z1Q3sR3ihpWhmhDE-7" edge="1">
          <mxGeometry relative="1" as="geometry" />
        </mxCell>
        <mxCell id="4NG9Z1Q3sR3ihpWhmhDE-5" value="线程1（下单服务）" style="rounded=0;whiteSpace=wrap;html=1;fillColor=#f8cecc;strokeColor=#b85450;" parent="4NG9Z1Q3sR3ihpWhmhDE-1" vertex="1">
          <mxGeometry x="360" y="170" width="120" height="50" as="geometry" />
        </mxCell>
        <mxCell id="4NG9Z1Q3sR3ihpWhmhDE-6" value="" style="edgeStyle=orthogonalEdgeStyle;rounded=0;orthogonalLoop=1;jettySize=auto;html=1;" parent="4NG9Z1Q3sR3ihpWhmhDE-1" source="4NG9Z1Q3sR3ihpWhmhDE-7" target="4NG9Z1Q3sR3ihpWhmhDE-9" edge="1">
          <mxGeometry relative="1" as="geometry" />
        </mxCell>
        <mxCell id="4NG9Z1Q3sR3ihpWhmhDE-7" value="查询token" style="rounded=0;whiteSpace=wrap;html=1;fillColor=#f8cecc;strokeColor=#b85450;" parent="4NG9Z1Q3sR3ihpWhmhDE-1" vertex="1">
          <mxGeometry x="360" y="240" width="120" height="50" as="geometry" />
        </mxCell>
        <mxCell id="4NG9Z1Q3sR3ihpWhmhDE-8" value="" style="edgeStyle=orthogonalEdgeStyle;rounded=0;orthogonalLoop=1;jettySize=auto;html=1;" parent="4NG9Z1Q3sR3ihpWhmhDE-1" source="4NG9Z1Q3sR3ihpWhmhDE-9" target="4NG9Z1Q3sR3ihpWhmhDE-11" edge="1">
          <mxGeometry relative="1" as="geometry" />
        </mxCell>
        <mxCell id="4NG9Z1Q3sR3ihpWhmhDE-9" value="下单" style="rounded=0;whiteSpace=wrap;html=1;fillColor=#f8cecc;strokeColor=#b85450;" parent="4NG9Z1Q3sR3ihpWhmhDE-1" vertex="1">
          <mxGeometry x="360" y="320" width="120" height="50" as="geometry" />
        </mxCell>
        <mxCell id="4NG9Z1Q3sR3ihpWhmhDE-10" value="" style="edgeStyle=orthogonalEdgeStyle;rounded=0;orthogonalLoop=1;jettySize=auto;html=1;" parent="4NG9Z1Q3sR3ihpWhmhDE-1" source="4NG9Z1Q3sR3ihpWhmhDE-11" target="4NG9Z1Q3sR3ihpWhmhDE-33" edge="1">
          <mxGeometry relative="1" as="geometry" />
        </mxCell>
        <mxCell id="4NG9Z1Q3sR3ihpWhmhDE-11" value="发现token失效，清缓存" style="rounded=0;whiteSpace=wrap;html=1;fillColor=#f8cecc;strokeColor=#b85450;" parent="4NG9Z1Q3sR3ihpWhmhDE-1" vertex="1">
          <mxGeometry x="360" y="770" width="120" height="50" as="geometry" />
        </mxCell>
        <mxCell id="4NG9Z1Q3sR3ihpWhmhDE-12" value="" style="edgeStyle=orthogonalEdgeStyle;rounded=0;orthogonalLoop=1;jettySize=auto;html=1;" parent="4NG9Z1Q3sR3ihpWhmhDE-1" source="4NG9Z1Q3sR3ihpWhmhDE-13" target="4NG9Z1Q3sR3ihpWhmhDE-15" edge="1">
          <mxGeometry relative="1" as="geometry" />
        </mxCell>
        <mxCell id="4NG9Z1Q3sR3ihpWhmhDE-13" value="线程2（下单服务）" style="rounded=0;whiteSpace=wrap;html=1;fillColor=#dae8fc;strokeColor=#6c8ebf;" parent="4NG9Z1Q3sR3ihpWhmhDE-1" vertex="1">
          <mxGeometry x="630" y="280" width="120" height="50" as="geometry" />
        </mxCell>
        <mxCell id="4NG9Z1Q3sR3ihpWhmhDE-14" value="" style="edgeStyle=orthogonalEdgeStyle;rounded=0;orthogonalLoop=1;jettySize=auto;html=1;" parent="4NG9Z1Q3sR3ihpWhmhDE-1" source="4NG9Z1Q3sR3ihpWhmhDE-15" target="4NG9Z1Q3sR3ihpWhmhDE-17" edge="1">
          <mxGeometry relative="1" as="geometry" />
        </mxCell>
        <mxCell id="4NG9Z1Q3sR3ihpWhmhDE-15" value="查询token" style="rounded=0;whiteSpace=wrap;html=1;fillColor=#dae8fc;strokeColor=#6c8ebf;" parent="4NG9Z1Q3sR3ihpWhmhDE-1" vertex="1">
          <mxGeometry x="630" y="360" width="120" height="50" as="geometry" />
        </mxCell>
        <mxCell id="4NG9Z1Q3sR3ihpWhmhDE-16" value="" style="edgeStyle=orthogonalEdgeStyle;rounded=0;orthogonalLoop=1;jettySize=auto;html=1;" parent="4NG9Z1Q3sR3ihpWhmhDE-1" source="4NG9Z1Q3sR3ihpWhmhDE-17" target="4NG9Z1Q3sR3ihpWhmhDE-19" edge="1">
          <mxGeometry relative="1" as="geometry" />
        </mxCell>
        <mxCell id="4NG9Z1Q3sR3ihpWhmhDE-17" value="下单" style="rounded=0;whiteSpace=wrap;html=1;fillColor=#dae8fc;strokeColor=#6c8ebf;" parent="4NG9Z1Q3sR3ihpWhmhDE-1" vertex="1">
          <mxGeometry x="630" y="440" width="120" height="50" as="geometry" />
        </mxCell>
        <mxCell id="4NG9Z1Q3sR3ihpWhmhDE-18" value="" style="edgeStyle=orthogonalEdgeStyle;rounded=0;orthogonalLoop=1;jettySize=auto;html=1;" parent="4NG9Z1Q3sR3ihpWhmhDE-1" source="4NG9Z1Q3sR3ihpWhmhDE-19" target="4NG9Z1Q3sR3ihpWhmhDE-24" edge="1">
          <mxGeometry relative="1" as="geometry" />
        </mxCell>
        <mxCell id="4NG9Z1Q3sR3ihpWhmhDE-19" value="发现token失效，清缓存" style="rounded=0;whiteSpace=wrap;html=1;fillColor=#dae8fc;strokeColor=#6c8ebf;" parent="4NG9Z1Q3sR3ihpWhmhDE-1" vertex="1">
          <mxGeometry x="630" y="520" width="120" height="50" as="geometry" />
        </mxCell>
        <mxCell id="4NG9Z1Q3sR3ihpWhmhDE-20" value="" style="edgeStyle=orthogonalEdgeStyle;rounded=0;orthogonalLoop=1;jettySize=auto;html=1;" parent="4NG9Z1Q3sR3ihpWhmhDE-1" source="4NG9Z1Q3sR3ihpWhmhDE-21" target="4NG9Z1Q3sR3ihpWhmhDE-23" edge="1">
          <mxGeometry relative="1" as="geometry" />
        </mxCell>
        <mxCell id="4NG9Z1Q3sR3ihpWhmhDE-21" value="线程3（获取电子面单）" style="rounded=0;whiteSpace=wrap;html=1;fillColor=#d5e8d4;strokeColor=#82b366;" parent="4NG9Z1Q3sR3ihpWhmhDE-1" vertex="1">
          <mxGeometry x="980" y="510" width="150" height="50" as="geometry" />
        </mxCell>
        <mxCell id="4NG9Z1Q3sR3ihpWhmhDE-22" value="" style="edgeStyle=orthogonalEdgeStyle;rounded=0;orthogonalLoop=1;jettySize=auto;html=1;" parent="4NG9Z1Q3sR3ihpWhmhDE-1" source="4NG9Z1Q3sR3ihpWhmhDE-23" target="4NG9Z1Q3sR3ihpWhmhDE-26" edge="1">
          <mxGeometry relative="1" as="geometry" />
        </mxCell>
        <mxCell id="4NG9Z1Q3sR3ihpWhmhDE-23" value="数据库获取token，查询电子面单" style="rounded=0;whiteSpace=wrap;html=1;fillColor=#d5e8d4;strokeColor=#82b366;" parent="4NG9Z1Q3sR3ihpWhmhDE-1" vertex="1">
          <mxGeometry x="980" y="610" width="150" height="50" as="geometry" />
        </mxCell>
        <mxCell id="-iwEo9HPpBrYCAGGpuMG-1" style="edgeStyle=orthogonalEdgeStyle;rounded=0;orthogonalLoop=1;jettySize=auto;html=1;entryX=0.5;entryY=0;entryDx=0;entryDy=0;" parent="4NG9Z1Q3sR3ihpWhmhDE-1" source="4NG9Z1Q3sR3ihpWhmhDE-24" target="-iwEo9HPpBrYCAGGpuMG-0" edge="1">
          <mxGeometry relative="1" as="geometry" />
        </mxCell>
        <mxCell id="4NG9Z1Q3sR3ihpWhmhDE-24" value="从oms获取" style="rounded=0;whiteSpace=wrap;html=1;fillColor=#dae8fc;strokeColor=#6c8ebf;" parent="4NG9Z1Q3sR3ihpWhmhDE-1" vertex="1">
          <mxGeometry x="630" y="600" width="120" height="50" as="geometry" />
        </mxCell>
        <mxCell id="4NG9Z1Q3sR3ihpWhmhDE-25" value="" style="edgeStyle=orthogonalEdgeStyle;rounded=0;orthogonalLoop=1;jettySize=auto;html=1;" parent="4NG9Z1Q3sR3ihpWhmhDE-1" source="4NG9Z1Q3sR3ihpWhmhDE-26" target="4NG9Z1Q3sR3ihpWhmhDE-28" edge="1">
          <mxGeometry relative="1" as="geometry" />
        </mxCell>
        <mxCell id="4NG9Z1Q3sR3ihpWhmhDE-26" value="token失效" style="rounded=0;whiteSpace=wrap;html=1;fillColor=#d5e8d4;strokeColor=#82b366;" parent="4NG9Z1Q3sR3ihpWhmhDE-1" vertex="1">
          <mxGeometry x="980" y="700" width="150" height="50" as="geometry" />
        </mxCell>
        <mxCell id="4NG9Z1Q3sR3ihpWhmhDE-27" value="" style="edgeStyle=orthogonalEdgeStyle;rounded=0;orthogonalLoop=1;jettySize=auto;html=1;" parent="4NG9Z1Q3sR3ihpWhmhDE-1" source="4NG9Z1Q3sR3ihpWhmhDE-28" target="4NG9Z1Q3sR3ihpWhmhDE-30" edge="1">
          <mxGeometry relative="1" as="geometry" />
        </mxCell>
        <mxCell id="4NG9Z1Q3sR3ihpWhmhDE-28" value="oms获取token" style="rounded=0;whiteSpace=wrap;html=1;fillColor=#d5e8d4;strokeColor=#82b366;" parent="4NG9Z1Q3sR3ihpWhmhDE-1" vertex="1">
          <mxGeometry x="980" y="800" width="150" height="50" as="geometry" />
        </mxCell>
        <mxCell id="4NG9Z1Q3sR3ihpWhmhDE-29" value="" style="edgeStyle=orthogonalEdgeStyle;rounded=0;orthogonalLoop=1;jettySize=auto;html=1;" parent="4NG9Z1Q3sR3ihpWhmhDE-1" source="4NG9Z1Q3sR3ihpWhmhDE-30" target="4NG9Z1Q3sR3ihpWhmhDE-31" edge="1">
          <mxGeometry relative="1" as="geometry" />
        </mxCell>
        <mxCell id="4NG9Z1Q3sR3ihpWhmhDE-30" value="更新数据库，更新缓存" style="rounded=0;whiteSpace=wrap;html=1;fillColor=#d5e8d4;strokeColor=#82b366;" parent="4NG9Z1Q3sR3ihpWhmhDE-1" vertex="1">
          <mxGeometry x="980" y="890" width="150" height="50" as="geometry" />
        </mxCell>
        <mxCell id="4NG9Z1Q3sR3ihpWhmhDE-31" value="查询新token，重新查询" style="rounded=0;whiteSpace=wrap;html=1;fillColor=#d5e8d4;strokeColor=#82b366;" parent="4NG9Z1Q3sR3ihpWhmhDE-1" vertex="1">
          <mxGeometry x="980" y="970" width="150" height="50" as="geometry" />
        </mxCell>
        <mxCell id="4NG9Z1Q3sR3ihpWhmhDE-32" value="" style="edgeStyle=orthogonalEdgeStyle;rounded=0;orthogonalLoop=1;jettySize=auto;html=1;" parent="4NG9Z1Q3sR3ihpWhmhDE-1" source="4NG9Z1Q3sR3ihpWhmhDE-33" target="4NG9Z1Q3sR3ihpWhmhDE-34" edge="1">
          <mxGeometry relative="1" as="geometry" />
        </mxCell>
        <mxCell id="4NG9Z1Q3sR3ihpWhmhDE-33" value="从oms获取" style="rounded=0;whiteSpace=wrap;html=1;fillColor=#f8cecc;strokeColor=#b85450;" parent="4NG9Z1Q3sR3ihpWhmhDE-1" vertex="1">
          <mxGeometry x="360" y="1000" width="120" height="50" as="geometry" />
        </mxCell>
        <mxCell id="4NG9Z1Q3sR3ihpWhmhDE-34" value="更新数据库、缓存" style="rounded=0;whiteSpace=wrap;html=1;fillColor=#f8cecc;strokeColor=#b85450;" parent="4NG9Z1Q3sR3ihpWhmhDE-1" vertex="1">
          <mxGeometry x="360" y="1110" width="120" height="50" as="geometry" />
        </mxCell>
        <mxCell id="-iwEo9HPpBrYCAGGpuMG-0" value="更新数据库、缓存" style="rounded=0;whiteSpace=wrap;html=1;fillColor=#f8cecc;strokeColor=#b85450;" parent="4NG9Z1Q3sR3ihpWhmhDE-1" vertex="1">
          <mxGeometry x="630" y="680" width="120" height="50" as="geometry" />
        </mxCell>
      </root>
    </mxGraphModel>
  </diagram>
</mxfile>
